<svg width="5" height="5" viewBox="0 0 5 5" fill="none" xmlns="http://www.w3.org/2000/svg">
<circle cx="2.5" cy="2.5" r="2.5" fill="#EC3237"/>
<g clip-path="url(#clip0_123_58)">
<path d="M1.05493 1.05492C1.09009 1.01977 1.13777 1.00002 1.18749 1.00002C1.23721 1.00002 1.28489 1.01977 1.32005 1.05492L2.49999 2.23486L3.67993 1.05492C3.69722 1.03701 3.71791 1.02273 3.74079 1.0129C3.76367 1.00308 3.78827 0.997904 3.81317 0.997688C3.83806 0.997471 3.86275 1.00222 3.88579 1.01164C3.90884 1.02107 3.92977 1.03499 3.94738 1.0526C3.96498 1.0702 3.9789 1.09114 3.98833 1.11418C3.99776 1.13722 4.0025 1.16191 4.00229 1.18681C4.00207 1.21171 3.9969 1.23631 3.98707 1.25919C3.97725 1.28206 3.96296 1.30275 3.94505 1.32005L2.76512 2.49998L3.94505 3.67992C3.97921 3.71529 3.99811 3.76265 3.99768 3.81181C3.99725 3.86097 3.97753 3.908 3.94277 3.94276C3.908 3.97753 3.86098 3.99725 3.81182 3.99767C3.76265 3.9981 3.71529 3.9792 3.67993 3.94505L2.49999 2.76511L1.32005 3.94505C1.28469 3.9792 1.23733 3.9981 1.18817 3.99767C1.139 3.99725 1.09198 3.97753 1.05721 3.94276C1.02245 3.908 1.00273 3.86097 1.0023 3.81181C1.00187 3.76265 1.02077 3.71529 1.05493 3.67992L2.23487 2.49998L1.05493 1.32005C1.01978 1.28489 1.00003 1.2372 1.00003 1.18748C1.00003 1.13777 1.01978 1.09008 1.05493 1.05492V1.05492Z" fill="white"/>
</g>
<defs>
<clipPath id="clip0_123_58">
<rect width="3" height="3" fill="white" transform="translate(1 1)"/>
</clipPath>
</defs>
</svg>
